<svg width="18" height="18" viewBox="0 0 18 18" fill="none" xmlns="http://www.w3.org/2000/svg">
<path d="M15.75 9.5C16.0261 9.5 16.25 9.27614 16.25 9C16.25 8.72386 16.0261 8.5 15.75 8.5V9.5ZM2.25 8.5C1.97386 8.5 1.75 8.72386 1.75 9C1.75 9.27614 1.97386 9.5 2.25 9.5L2.25 8.5ZM15.75 8.5L2.25 8.5L2.25 9.5L15.75 9.5V8.5Z" fill="white"/>
<path d="M5.64645 13.1036C5.84171 13.2988 6.15829 13.2988 6.35355 13.1036C6.54881 12.9083 6.54881 12.5917 6.35355 12.3964L5.64645 13.1036ZM2.25 9L1.89645 8.64645C1.70118 8.84171 1.70118 9.15829 1.89645 9.35355L2.25 9ZM6.35355 5.60355C6.54882 5.40829 6.54882 5.09171 6.35355 4.89645C6.15829 4.70118 5.84171 4.70118 5.64645 4.89645L6.35355 5.60355ZM6.35355 12.3964L2.60355 8.64645L1.89645 9.35355L5.64645 13.1036L6.35355 12.3964ZM2.60355 9.35355L6.35355 5.60355L5.64645 4.89645L1.89645 8.64645L2.60355 9.35355Z" fill="white"/>
</svg>
