<svg width="16" height="16" viewBox="0 0 16 16" fill="none" xmlns="http://www.w3.org/2000/svg">
<path d="M3.85999 10.0467L4.12785 9.62448C4.00092 9.54395 3.84449 9.5248 3.70187 9.57234L3.85999 10.0467ZM2 10.6667L1.52566 10.5086C1.46577 10.6882 1.51253 10.8863 1.64645 11.0202C1.78036 11.1541 1.97845 11.2009 2.15811 11.141L2 10.6667ZM2.62 8.80669L3.09434 8.9648C3.14187 8.82219 3.12272 8.66575 3.04219 8.53882L2.62 8.80669ZM6 11.1667C8.48528 11.1667 10.5 9.15195 10.5 6.66667H9.5C9.5 8.59967 7.933 10.1667 6 10.1667V11.1667ZM3.59212 10.4689C4.28869 10.9108 5.11523 11.1667 6 11.1667V10.1667C5.31049 10.1667 4.66897 9.9678 4.12785 9.62448L3.59212 10.4689ZM3.70187 9.57234L1.84189 10.1923L2.15811 11.141L4.0181 10.521L3.70187 9.57234ZM2.47434 10.8248L3.09434 8.9648L2.14565 8.64857L1.52566 10.5086L2.47434 10.8248ZM1.5 6.66667C1.5 7.55144 1.75585 8.37798 2.1978 9.07455L3.04219 8.53882C2.69887 7.99771 2.5 7.35618 2.5 6.66667H1.5ZM6 2.16667C3.51472 2.16667 1.5 4.18139 1.5 6.66667H2.5C2.5 4.73367 4.067 3.16667 6 3.16667V2.16667ZM10.5 6.66667C10.5 4.18139 8.48528 2.16667 6 2.16667V3.16667C7.933 3.16667 9.5 4.73367 9.5 6.66667H10.5Z" fill="#778888"/>
<path d="M6.22534 10.6597C6.7725 12.2169 8.25597 13.3333 10.0002 13.3333C10.7873 13.3333 11.5214 13.106 12.1402 12.7133L14.0002 13.3333L13.3802 11.4733L13.4749 11.3163C13.8092 10.7318 14.0002 10.0549 14.0002 9.33333C14.0002 7.12419 12.2093 5.33333 10.0002 5.33333L9.85022 5.33609L9.77495 5.34009" stroke="#778888" stroke-linecap="round" stroke-linejoin="round"/>
</svg>
