<svg width="24" height="24" viewBox="0 0 24 24" fill="none" xmlns="http://www.w3.org/2000/svg">
<path d="M9.95406 13.3388C9.7588 13.5341 9.7588 13.8506 9.95406 14.0459C10.1493 14.2412 10.4659 14.2412 10.6612 14.0459L9.95406 13.3388ZM15.5073 9.19974C15.7026 9.00448 15.7026 8.6879 15.5073 8.49264C15.3121 8.29738 14.9955 8.29738 14.8002 8.49264L15.5073 9.19974ZM10.6612 14.0459L15.5073 9.19974L14.8002 8.49264L9.95406 13.3388L10.6612 14.0459Z" fill="white"/>
<path d="M13.7302 20.7675L13.2829 20.9911L13.7302 20.7675ZM15.5804 20.6144L15.1025 20.4674L15.5804 20.6144ZM9.93283 13.6201L9.70922 14.0673L9.93283 13.6201ZM10.38 14.0673L10.8273 13.8437L10.38 14.0673ZM3.38572 8.41978L3.53276 8.89767L3.38572 8.41978ZM3.2326 10.27L3.00899 10.7172L3.2326 10.27ZM19.1948 3.55543L19.3419 4.03332L19.1948 3.55543ZM20.4447 4.8053L20.9226 4.95234L20.4447 4.8053ZM19.0478 3.07754L3.23868 7.94189L3.53276 8.89767L19.3419 4.03332L19.0478 3.07754ZM3.00899 10.7172L9.70922 14.0673L10.1564 13.1729L3.4562 9.82277L3.00899 10.7172ZM9.93283 14.2909L13.2829 20.9911L14.1774 20.5439L10.8273 13.8437L9.93283 14.2909ZM16.0582 20.7615L20.9226 4.95234L19.9668 4.65825L15.1025 20.4674L16.0582 20.7615ZM13.2829 20.9911C13.8881 22.2015 15.6603 22.0549 16.0582 20.7615L15.1025 20.4674C14.9698 20.8985 14.3791 20.9474 14.1774 20.5439L13.2829 20.9911ZM9.70922 14.0673C9.80598 14.1157 9.88444 14.1942 9.93283 14.2909L10.8273 13.8437C10.6821 13.5534 10.4467 13.318 10.1564 13.1729L9.70922 14.0673ZM3.23868 7.94189C1.94528 8.33986 1.79862 10.112 3.00899 10.7172L3.4562 9.82277C3.05274 9.62104 3.10163 9.03032 3.53276 8.89767L3.23868 7.94189ZM19.3419 4.03332C19.7255 3.91528 20.0849 4.27462 19.9668 4.65825L20.9226 4.95234C21.2767 3.80142 20.1987 2.72342 19.0478 3.07754L19.3419 4.03332Z" fill="white"/>
</svg>
