<svg width="21" height="20" viewBox="0 0 21 20" fill="none" xmlns="http://www.w3.org/2000/svg">
<path d="M16.3333 11.6667H4.66659C4.20635 11.6667 3.83325 12.0398 3.83325 12.5V15C3.83325 15.4603 4.20635 15.8334 4.66659 15.8334H16.3333C16.7935 15.8334 17.1666 15.4603 17.1666 15V12.5C17.1666 12.0398 16.7935 11.6667 16.3333 11.6667Z" stroke="#2D3436" stroke-linecap="round" stroke-linejoin="round"/>
<path d="M16.3333 4.16669H4.66659C4.20635 4.16669 3.83325 4.53978 3.83325 5.00002V7.50002C3.83325 7.96026 4.20635 8.33335 4.66659 8.33335H16.3333C16.7935 8.33335 17.1666 7.96026 17.1666 7.50002V5.00002C17.1666 4.53978 16.7935 4.16669 16.3333 4.16669Z" stroke="#2D3436" stroke-linecap="round" stroke-linejoin="round"/>
</svg>
