<svg width="20" height="20" viewBox="0 0 20 20" fill="none" xmlns="http://www.w3.org/2000/svg">
<path d="M15.8333 11.6667H4.16659C3.70635 11.6667 3.33325 12.0398 3.33325 12.5V15C3.33325 15.4602 3.70635 15.8333 4.16659 15.8333H15.8333C16.2935 15.8333 16.6666 15.4602 16.6666 15V12.5C16.6666 12.0398 16.2935 11.6667 15.8333 11.6667Z" fill="#6C5CE7" stroke="#6C5CE7" stroke-linecap="round" stroke-linejoin="round"/>
<path d="M15.8333 4.16667H4.16659C3.70635 4.16667 3.33325 4.53977 3.33325 5.00001V7.50001C3.33325 7.96024 3.70635 8.33334 4.16659 8.33334H15.8333C16.2935 8.33334 16.6666 7.96024 16.6666 7.50001V5.00001C16.6666 4.53977 16.2935 4.16667 15.8333 4.16667Z" fill="#6C5CE7" stroke="#6C5CE7" stroke-linecap="round" stroke-linejoin="round"/>
</svg>
