<svg width="20" height="20" viewBox="0 0 20 20" fill="none" xmlns="http://www.w3.org/2000/svg">
<path d="M17.3063 8.55836C17.9787 8.22215 17.8972 7.23762 17.1787 7.01653L4.00441 2.96291C3.36502 2.76617 2.76612 3.36506 2.96286 4.00446L7.01648 17.1787C7.23757 17.8973 8.2221 17.9788 8.55832 17.3063L11.3501 11.7228C11.4307 11.5615 11.5615 11.4308 11.7228 11.3501L17.3063 8.55836Z" fill="#6C5CE7"/>
<path d="M8.55832 17.3063L8.1111 17.0827L8.55832 17.3063ZM7.01648 17.1787L7.49437 17.0317L7.01648 17.1787ZM11.7228 11.3501L11.4992 10.9029L11.7228 11.3501ZM11.3501 11.7228L11.7973 11.9464L11.3501 11.7228ZM17.1787 7.01653L17.0316 7.49441L17.1787 7.01653ZM17.3063 8.55836L17.5299 9.00558L17.3063 8.55836ZM4.00441 2.96291L3.85737 3.4408L4.00441 2.96291ZM2.96286 4.00446L3.44075 3.85742L2.96286 4.00446ZM3.85737 3.4408L17.0316 7.49441L17.3257 6.53864L4.15146 2.48502L3.85737 3.4408ZM17.0827 8.11115L11.4992 10.9029L11.9464 11.7973L17.5299 9.00558L17.0827 8.11115ZM10.9029 11.4992L8.1111 17.0827L9.00553 17.5299L11.7973 11.9464L10.9029 11.4992ZM7.49437 17.0317L3.44075 3.85742L2.48497 4.1515L6.53859 17.3258L7.49437 17.0317ZM8.1111 17.0827C7.97662 17.3517 7.58281 17.3191 7.49437 17.0317L6.53859 17.3258C6.89234 18.4755 8.46759 18.6058 9.00553 17.5299L8.1111 17.0827ZM11.4992 10.9029C11.2411 11.0319 11.0319 11.2412 10.9029 11.4992L11.7973 11.9464C11.8295 11.8819 11.8819 11.8296 11.9464 11.7973L11.4992 10.9029ZM17.0316 7.49441C17.3191 7.58285 17.3517 7.97666 17.0827 8.11115L17.5299 9.00558C18.6058 8.46763 18.4754 6.89239 17.3257 6.53864L17.0316 7.49441ZM4.15146 2.48502C3.12842 2.17024 2.17019 3.12847 2.48497 4.1515L3.44075 3.85742C3.36206 3.60166 3.60161 3.3621 3.85737 3.4408L4.15146 2.48502Z" fill="#6C5CE7"/>
</svg>
