<svg width="21" height="20" viewBox="0 0 21 20" fill="none" xmlns="http://www.w3.org/2000/svg">
<path d="M9.05832 17.3063L8.6111 17.0827L9.05832 17.3063ZM7.51648 17.1787L7.99437 17.0317L7.51648 17.1787ZM12.2228 11.3501L11.9992 10.9029L12.2228 11.3501ZM11.8501 11.7228L12.2973 11.9464L11.8501 11.7228ZM17.6787 7.01654L17.5316 7.49443L17.6787 7.01654ZM17.8063 8.55838L18.0299 9.00559L17.8063 8.55838ZM4.50441 2.96292L4.35737 3.44081L4.50441 2.96292ZM3.46286 4.00447L3.94075 3.85743L3.46286 4.00447ZM4.35737 3.44081L17.5316 7.49443L17.8257 6.53865L4.65146 2.48503L4.35737 3.44081ZM17.5827 8.11117L11.9992 10.9029L12.4464 11.7974L18.0299 9.00559L17.5827 8.11117ZM11.4029 11.4992L8.6111 17.0827L9.50553 17.53L12.2973 11.9464L11.4029 11.4992ZM7.99437 17.0317L3.94075 3.85743L2.98497 4.15152L7.03859 17.3258L7.99437 17.0317ZM8.6111 17.0827C8.47662 17.3517 8.08281 17.3191 7.99437 17.0317L7.03859 17.3258C7.39234 18.4755 8.96759 18.6058 9.50553 17.53L8.6111 17.0827ZM11.9992 10.9029C11.7411 11.0319 11.5319 11.2412 11.4029 11.4992L12.2973 11.9464C12.3295 11.8819 12.3819 11.8296 12.4464 11.7974L11.9992 10.9029ZM17.5316 7.49443C17.8191 7.58287 17.8517 7.97668 17.5827 8.11117L18.0299 9.00559C19.1058 8.46765 18.9754 6.8924 17.8257 6.53865L17.5316 7.49443ZM4.65146 2.48503C3.62842 2.17025 2.67019 3.12848 2.98497 4.15152L3.94075 3.85743C3.86206 3.60167 4.10161 3.36212 4.35737 3.44081L4.65146 2.48503Z" fill="#2D3436"/>
</svg>
