<svg width="21" height="20" viewBox="0 0 21 20" fill="none" xmlns="http://www.w3.org/2000/svg">
<path d="M6.48747 16.3375L6.75534 15.9153C6.62841 15.8348 6.47197 15.8156 6.32936 15.8632L6.48747 16.3375ZM3 17.5L2.52566 17.3419C2.46577 17.5216 2.51253 17.7196 2.64645 17.8536C2.78036 17.9875 2.97845 18.0342 3.15811 17.9743L3 17.5ZM4.16249 14.0125L4.63683 14.1706C4.68437 14.028 4.66522 13.8716 4.58468 13.7447L4.16249 14.0125ZM10.5 18C14.9183 18 18.5 14.4183 18.5 10H17.5C17.5 13.866 14.366 17 10.5 17V18ZM6.21961 16.7597C7.45766 17.5452 8.92648 18 10.5 18V17C9.12175 17 7.83794 16.6022 6.75534 15.9153L6.21961 16.7597ZM6.32936 15.8632L2.84189 17.0257L3.15811 17.9743L6.64559 16.8119L6.32936 15.8632ZM3.47434 17.6581L4.63683 14.1706L3.68815 13.8544L2.52566 17.3419L3.47434 17.6581ZM2.5 10C2.5 11.5735 2.95479 13.0423 3.7403 14.2804L4.58468 13.7447C3.89781 12.6621 3.5 11.3783 3.5 10H2.5ZM10.5 2C6.08172 2 2.5 5.58172 2.5 10H3.5C3.5 6.13401 6.63401 3 10.5 3V2ZM18.5 10C18.5 5.58172 14.9183 2 10.5 2V3C14.366 3 17.5 6.13401 17.5 10H18.5Z" fill="#2D3436"/>
</svg>
